# xmcd
# 
# Track frame offsets:
#     187
#     48895
#     78220
#     99517
#     127120
#     161167
#     195937
#     215937
# 
# Disc length: 3409
# 
# Revision: 6
# Processed by: cddbd v1.5.2PL0 Copyright (c) Steve Scherf et al.
# Submitted via: BonkEnc v1.0.8
# 
DISCID=690d4f08
DTITLE=Wynton Kelly - Kelly Blue
DYEAR=1959
DGENRE=Jazz
TTITLE0=Kelly Blue
TTITLE1=Softly, As In A Morning Sunrise
TTITLE2=On Green Dolphin Street
TTITLE3=Willow Weep For Me
TTITLE4=Keep It Moving [take 4]
TTITLE5=Old Clothes
TTITLE6=Do Nothin' Till You Hear From Me
TTITLE7=Keep It Moving [take 3]
EXTD=YEAR: 1959
EXTT0=
EXTT1=
EXTT2=
EXTT3=
EXTT4=
EXTT5=
EXTT6=
EXTT7=
PLAYORDER=
